<?xml version="1.0" encoding="UTF-8" standalone="no"?>
<svg width="25px" height="25px" viewBox="0 0 25 25" version="1.1" xmlns="http://www.w3.org/2000/svg" xmlns:xlink="http://www.w3.org/1999/xlink">
    <!-- Generator: Sketch 42 (36781) - http://www.bohemiancoding.com/sketch -->
    <title>Artboard</title>
    <desc>Created with Sketch.</desc>
    <defs></defs>
    <g stroke="none" stroke-width="1" fill="none" fill-rule="evenodd">
        <g>
            <g>
                <path d="M0,12.5 C0,5.59644029 5.59644029,0 12.5,0 C19.4035597,0 25,5.59644029 25,12.5 C25,19.4035597 19.4035597,25 12.5,25 C5.59644029,25 0,19.4035597 0,12.5 Z" fill="#333333"></path>
                <path d="M14.2673906,12.7611639 L19,8 L19,16.417629 L14.2673906,12.7611639 Z M6,8 L10.7325078,12.7606519 L6,16.417629 L6,8 Z M12.5,14.5391092 L13.6297812,13.402668 L19,17 L6,17 L11.3700918,13.402668 L12.5,14.5391092 Z M18.61,8 L12.5,13.0951988 L6.39,8 L18.61,8 Z" fill="#FFFFFF"></path>
            </g>
        </g>
    </g>
</svg>