<?xml version="1.0" encoding="UTF-8"?>
<svg width="400px" height="526px" viewBox="0 0 400 526" version="1.1" xmlns="http://www.w3.org/2000/svg" xmlns:xlink="http://www.w3.org/1999/xlink">
    <!-- Generator: Sketch 53 (72520) - https://sketchapp.com -->
    <title>Green Rectangle</title>
    <desc>Created with Sketch.</desc>
    <defs>
        <linearGradient x1="75.4353978%" y1="0%" x2="13.0009371%" y2="100%" id="linearGradient-1">
            <stop stop-color="#74C947" offset="0%"></stop>
            <stop stop-color="#17A77B" offset="100%"></stop>
        </linearGradient>
        <rect id="path-2" x="0" y="0" width="400" height="526"></rect>
        <rect id="path-4" x="0" y="0" width="774" height="537"></rect>
        <polygon id="path-6" points="0 0 299 0 299 228 0 228"></polygon>
        <polygon id="path-8" points="0.887174116 0.656905996 291.137174 0.656905996 291.137174 313.932947 0.887174116 313.932947"></polygon>
        <polygon id="path-10" points="0 0 303 0 303 314 0 314"></polygon>
        <polygon id="path-12" points="0 0 227 0 227 155 0 155"></polygon>
    </defs>
    <g id="Page-1" stroke="none" stroke-width="1" fill="none" fill-rule="evenodd">
        <g id="Inline-Image" transform="translate(-515.000000, -604.000000)">
            <g id="1440---Inline-Video" transform="translate(185.000000, 148.000000)">
                <g id="Green-Rectangle" transform="translate(330.000000, 456.000000)">
                    <mask id="mask-3" fill="white">
                        <use xlink:href="#path-2"></use>
                    </mask>
                    <use id="Rectangle" fill="url(#linearGradient-1)" xlink:href="#path-2"></use>
                    <g id="Green-BG" mask="url(#mask-3)">
                        <g transform="translate(-374.000000, 1.000000)">
                            <mask id="mask-5" fill="white">
                                <use xlink:href="#path-4"></use>
                            </mask>
                            <use id="Mask" stroke="none" fill="#74C947" fill-rule="evenodd" xlink:href="#path-4"></use>
                            <g id="Group-3" stroke="none" stroke-width="1" fill="none" fill-rule="evenodd" mask="url(#mask-5)">
                                <g transform="translate(648.000000, 192.000000)">
                                    <mask id="mask-7" fill="white">
                                        <use xlink:href="#path-6"></use>
                                    </mask>
                                    <g id="Clip-2" stroke="none" fill="none"></g>
                                    <path d="M100.855874,89.6776343 C98.9578303,88.3886034 98.0458511,87.6335995 96.9684843,87.0627429 C93.6816025,85.3201492 90.3858513,83.5811584 86.9935806,81.9642652 C80.9686742,79.093169 75.830704,75.4878855 72.5641696,70.6644277 C69.5324125,66.1876473 66.8976898,61.5255185 64.5906118,56.8001392 C63.5946344,54.7589067 63.5998517,52.3529824 63.6238512,50.115593 C63.6556765,47.1924551 64.0146249,44.2581082 64.5180917,41.3577886 C64.7638252,39.9442581 65.4102453,38.4930974 66.3034424,37.238494 C68.8849489,33.6127942 71.5389755,30.0063098 74.4606482,26.5399374 C75.8515731,24.8894173 77.7793554,23.4582727 79.6972248,22.1256069 C86.3956812,17.4710842 93.1374409,12.8505888 99.997111,8.33737919 C101.802809,7.14922892 103.964847,6.13601856 106.184275,5.48629892 C114.760428,2.97629145 123.286495,0.322168705 132.685411,0.0435458653 C138.516235,-0.129392449 143.962546,0.104394531 149.101038,2.7749304 C154.839516,5.75731568 161.045984,8.20687481 167.026022,10.9186437 C178.623497,16.1776498 187.690595,23.4254465 195.13147,31.9642757 C197.136989,34.2657164 198.267572,36.702065 197.915406,39.4886937 C197.480807,42.9270437 197.04673,46.3649933 196.604306,49.8025426 C196.441527,51.0675544 196.25527,52.3305645 195.974581,54.351781 C198.764778,53.5423337 200.629431,52.9890912 202.506084,52.4602682 C207.215195,51.1352085 211.885697,49.7176747 216.655328,48.5347286 C220.783234,47.5107096 225.014964,46.7268827 229.219564,45.8934161 C240.487829,43.6592292 251.83018,43.1748418 263.265399,45.1248014 C275.740419,47.2521028 285.14977,52.5915732 292.482125,60.6075844 C298.495032,67.1808416 300.15882,74.1512164 298.248255,81.8557785 C297.729137,83.9490526 297.451056,86.0771547 297.00811,88.1824385 C295.148152,97.0199066 289.527062,104.03792 280.15058,109.437438 C274.388624,112.755692 268.452933,115.630791 261.385615,116.974266 C260.461114,117.149606 259.667046,117.73007 258.268295,118.373785 C259.352966,119.347364 260.155904,120.118781 261.026667,120.841359 C263.608695,122.982671 266.330546,125.03191 268.784751,127.255689 C271.138785,129.388995 273.169347,131.730868 275.444078,133.918217 C280.202753,138.493877 282.263575,144.067935 285.314636,149.284107 C290.590864,158.304121 288.90099,167.398194 285.018817,176.171611 C281.511244,184.098351 276.631529,191.67401 272.211456,199.355754 C269.936203,203.310116 266.321677,206.579531 262.314811,209.576728 C251.823398,217.424205 239.266988,222.775685 225.955116,227.202826 C225.48191,227.360552 224.984704,227.535091 224.482802,227.57152 C209.085065,228.686012 194.196534,228.124363 181.752296,219.754869 C180.192331,218.70563 178.49463,217.690017 177.310831,216.413396 C171.676177,210.339338 165.47284,204.478651 160.90303,197.952632 C157.521716,193.12437 155.899144,187.466645 154.290659,182.039905 C152.368616,175.555118 151.321509,168.919811 149.844499,162.356562 C149.368684,160.24127 148.548007,158.218052 145.876242,156.42742 C143.285866,157.894193 140.617231,159.322135 138.068071,160.86537 C131.793779,164.663207 125.489227,168.436225 119.351627,172.361764 C108.896213,179.049113 96.5250161,182.919408 84.1026899,186.730456 C77.4517107,188.771288 70.4636956,189.84895 63.4115082,190.609559 C54.3762354,191.584338 45.8459945,189.6616 37.3788827,187.586341 C35.7270942,187.181617 34.0408717,186.824531 32.4668205,186.280897 C31.096243,185.807718 29.5738428,185.298511 28.6117777,184.468647 C19.8180646,176.880979 11.4568635,168.967049 5.6291699,159.834145 C3.01792493,155.742472 2.29585439,150.916613 0.934146221,146.384988 C-1.89100693,136.987072 2.11898884,128.503887 7.25278515,120.222864 C7.82564169,119.298525 8.83518395,118.431832 9.90785521,117.808533 C16.8280457,113.785315 23.5531102,109.5147 30.8484225,105.932235 C45.5606097,98.7084571 62.1134507,95.1183858 79.1071513,92.6303959 C85.9068227,91.6351999 92.7398848,90.7745116 100.855874,89.6776343" id="Fill-1" stroke="none" fill="#53B324" fill-rule="evenodd" mask="url(#mask-7)"></path>
                                </g>
                            </g>
                            <g id="Group-3" stroke="none" stroke-width="1" fill="none" fill-rule="evenodd" mask="url(#mask-5)">
                                <g transform="translate(571.449828, 527.870656) rotate(-523.000000) translate(-571.449828, -527.870656) translate(425.449828, 370.870656)">
                                    <mask id="mask-9" fill="white">
                                        <use xlink:href="#path-8"></use>
                                    </mask>
                                    <g id="Clip-2" stroke="none" fill="none"></g>
                                    <path d="M142.79501,77.4440111 C136.144452,78.1238238 129.488364,78.7764064 122.845793,79.5022285 C121.012958,79.7026982 119.528502,79.9242946 117.779843,78.7872046 C116.660971,78.059974 114.332292,78.1519928 112.605138,78.2956549 C109.565567,78.5482373 106.555489,79.0646695 103.561386,79.5688953 C89.4522985,81.9468312 75.0728626,81.9501176 60.8064812,81.6707747 C50.3870275,81.4670187 40.387842,78.8242938 30.611079,75.8463574 C22.26163,73.3031631 15.2995572,69.296118 8.45729777,65.0745188 C3.76983391,62.1824979 1.14254391,58.6153593 1.47126237,53.7008018 C1.77171719,49.2054934 0.97787746,44.6726264 0.88878554,40.1538438 C0.861750751,38.8036081 1.1720364,37.2641704 2.03530639,36.123794 C4.81435987,32.4538384 8.24777815,29.416747 13.5803904,27.434586 C24.4115102,23.4097005 35.9350892,22.63693 47.6030586,22.1045352 C59.3005205,21.5712015 70.909505,22.5143947 82.49637,23.5026583 C96.2994734,24.6801239 110.085373,25.9758995 123.992929,26.1167447 C125.772309,26.1345851 127.569508,25.712519 129.340902,25.4294202 C131.098163,25.1486689 132.826546,24.766509 134.580121,24.4693257 C135.168742,24.3697951 135.869803,24.5228468 136.389609,24.3430345 C142.317601,22.2885729 148.511025,20.5580553 154.044555,17.9984291 C159.035546,15.6890377 161.887716,11.6988941 163.86187,7.48621502 C164.885506,5.30217592 165.813905,3.09184571 166.801904,0.854285437 C172.442958,0.0829233877 177.166059,1.72893394 181.867654,3.08949829 C196.204695,7.24067494 210.475992,11.5237766 224.759577,15.7815261 C225.284912,15.9378642 225.674459,16.3613387 226.481202,16.8942029 C225.835439,17.9519501 225.261564,19.0735472 224.49906,20.114393 C219.277045,27.2383417 214.977284,34.6435113 212.467964,42.6148784 C209.187538,53.037421 209.34606,63.2961138 213.918626,73.5651351 C218.502252,83.8581002 225.081537,93.3660881 232.137002,102.728067 C233.873373,105.032294 235.384249,107.443093 237.27054,109.670795 C240.915936,113.97737 244.757948,118.187232 248.512712,122.440287 C262.946217,138.792881 271.944501,157.157213 281.567657,175.251592 C287.070466,185.599017 289.258441,196.633298 290.075629,207.784479 C290.373011,211.845045 290.268559,215.931903 290.804953,219.971342 C291.793567,227.41454 290.509414,234.594357 287.834199,241.75117 C283.273921,253.950709 277.942538,265.919732 271.306112,277.562463 C268.692953,282.146973 264.111171,285.092985 258.867651,287.591109 C257.730346,288.132893 255.718098,288.137118 254.3639,287.796742 C242.027434,284.69674 233.779366,278.485938 230.301094,268.80471 C228.0271,262.474659 226.122991,256.055405 223.487713,249.815495 C219.563368,240.524878 219.548621,231.073228 220.269959,221.505616 C221.187913,209.330959 221.987897,197.150199 222.658851,184.966153 C223.054542,177.785866 223.140562,170.594781 223.280037,163.407452 C223.313216,161.743132 222.998629,160.074117 222.272376,158.386322 C220.641073,161.102756 220.188854,163.922946 220.214046,166.824356 C220.300066,176.829058 220.118195,186.838924 220.477021,196.837523 C221.16395,215.966175 217.302276,234.581212 209.829,252.755873 C205.477628,263.338979 200.560983,273.792507 195.58781,284.217397 C191.281906,293.245103 183.123543,300.280319 174.428172,306.994878 C171.038378,309.613659 167.827382,310.215068 162.989998,308.720231 C153.914296,305.915535 149.413004,300.584545 148.251737,293.819282 C146.898769,285.938056 146.810906,277.923496 146.385108,269.96011 C146.287414,268.132879 146.778955,266.218323 147.463427,264.448369 C150.483336,256.636157 154.520736,249.145541 159.366722,241.867602 C162.320273,237.430979 164.598568,232.704685 166.721414,227.98778 C167.466099,226.334258 166.840612,224.321111 166.840612,222.260546 C165.2345,221.519231 163.570017,220.599512 161.745783,219.935192 C155.436232,217.636599 148.334685,218.765708 144.169484,223.071344 C142.027591,225.286369 140.310267,227.881676 139.174192,230.500927 C134.155552,242.073705 129.484063,253.734277 124.55943,265.331468 C119.7669,276.620209 112.15845,286.71646 102.253886,295.854025 C98.2103414,299.583605 94.4310007,303.490181 90.7585703,307.43901 C88.61422,309.743706 85.9002958,311.218355 82.3820866,311.81413 C78.1880076,312.524929 73.9687372,313.167183 69.734106,313.717888 C66.042014,314.1977 62.501071,313.872817 58.9294066,312.761549 C49.1723053,309.726335 40.3859987,305.530558 32.2282509,300.487362 C28.0980724,297.934308 25.7755382,294.678907 26.5294402,290.659655 C28.2123558,281.699555 30.0912737,272.755887 32.265731,263.858697 C32.7228647,261.990151 34.6939466,260.302826 36.1360069,258.615971 C45.0906665,248.14648 57.2182273,239.965723 69.4201338,231.851632 C76.8325816,226.92299 84.6542377,222.324865 91.6968004,217.108899 C100.633027,210.490584 109.085086,203.479781 117.500893,196.466631 C121.100821,193.466159 121.084846,190.824373 118.10426,187.520615 C114.688046,183.733288 110.826372,180.536572 104.039411,180.236572 C99.1743775,180.022018 94.3468242,179.126712 89.5370894,178.40089 C84.9215135,177.703707 80.6420292,178.334693 76.3815921,179.717323 C65.2874976,183.317795 53.8825029,186.350661 43.3217311,190.919209 C41.0587963,191.898083 37.8385842,191.588224 35.0576874,191.862402 C26.5712212,192.700431 22.5012565,189.058644 19.6687479,183.534227 C17.1385374,178.597604 16.8651173,173.87976 19.3080792,168.946893 C24.3463809,158.775055 30.3683803,149.061902 41.0692415,141.546404 C44.0701032,139.438891 47.3370117,137.537011 50.6180521,135.682081 C57.5020926,131.790998 57.5272841,131.731843 66.0389418,131.108838 C72.3767567,130.644518 77.8771075,128.82386 82.8662551,125.909304 C85.9525221,124.106016 88.9884061,122.239348 92.2018595,120.576436 C100.540249,116.26094 106.420315,110.38488 111.283505,103.759992 C112.551683,102.032291 114.517849,100.553887 116.401683,99.1482519 C124.454363,93.1421443 132.61334,87.2181965 140.687526,81.2285208 C141.783664,80.4149052 142.622971,79.3994116 143.580248,78.4768757 C143.319117,78.132744 143.057371,77.7881428 142.79501,77.4440111" id="Fill-1" stroke="none" fill="#53B324" fill-rule="evenodd" mask="url(#mask-9)"></path>
                                </g>
                            </g>
                            <g id="Group-3" stroke="none" stroke-width="1" fill="none" fill-rule="evenodd" mask="url(#mask-5)">
                                <g transform="translate(515.000000, -67.000000)">
                                    <mask id="mask-11" fill="white">
                                        <use xlink:href="#path-10"></use>
                                    </mask>
                                    <g id="Clip-2" stroke="none" fill="none"></g>
                                    <path d="M177.836976,1.21461412 C193.768903,1.68844451 209.701235,2.17440049 225.634379,2.6311307 C231.979569,2.81301441 238.327598,2.98867988 244.676032,3.05552603 C248.201499,3.0925246 251.085713,3.79798467 253.770778,5.76730337 C266.36138,15.0017105 279.150321,24.0775523 291.827722,33.2432478 C292.789397,33.9381369 293.538132,34.8447572 294.208587,35.732101 C299.590885,42.8501279 302.722515,50.534637 302.991021,58.7480081 C303.094449,61.9037682 302.291769,65.1624403 301.230722,68.2379851 C298.983298,74.7509766 295.927921,81.0643624 291.857736,87.0649704 C287.923426,92.8659726 282.777187,97.7780765 275.378251,101.267135 C268.476984,104.521765 261.638992,107.883349 255.054904,111.498949 C249.35705,114.627037 243.95285,118.086248 238.607055,121.569088 C233.568705,124.851389 231.259225,129.426153 229.450253,134.139274 C229.161873,134.89106 229.220684,135.801722 229.457554,136.57807 C230.62649,140.412863 233.065357,143.629251 237.077947,146.217596 C243.209387,150.172711 249.774411,153.505692 257.04315,156.15311 C262.760878,158.23529 268.1594,160.847575 273.596454,163.356327 C274.774719,163.899802 275.813458,164.899696 276.399549,165.87223 C279.698285,171.341799 282.214215,177.028075 283.587573,182.971786 C284.349694,186.269944 284.159468,189.571522 282.89116,192.814959 C281.301618,196.879516 279.925015,200.99755 278.163093,205.017336 C275.387985,211.3472 271.669454,217.545237 265.766772,222.333287 C256.012929,230.246317 245.224402,237.308379 230.840241,240.215099 C222.722178,241.855472 214.636157,243.53502 206.256483,243.978071 C201.11146,244.250119 197.038841,245.981279 193.119944,248.292601 C179.692997,256.211538 169.327104,265.996882 162.203976,277.79103 C160.103379,281.268895 157.902599,284.711317 155.849051,288.20535 C150.607496,297.124181 142.43995,303.924144 131.038564,308.359619 C126.474359,310.13524 121.829439,311.793646 117.160995,313.403239 C115.972996,313.813022 114.540421,314.045895 113.246154,313.992418 C107.994459,313.776023 102.731813,313.54999 97.5109431,313.082378 C84.9531941,311.957808 74.1995491,308.026632 65.984548,300.505974 C62.0015663,296.859905 58.2027265,293.093202 54.4144323,289.325567 C51.4097553,286.337388 49.5277762,282.890303 48.0132697,279.332223 C45.9037496,274.376591 45.9000992,269.499309 47.9451291,264.420245 C50.0096277,259.293612 51.1680183,253.95276 52.7141615,248.703938 C53.7549284,245.17073 54.6521133,241.608608 55.847819,238.106491 C57.1003086,234.438348 57.1473581,230.726987 56.9774121,226.998837 C56.8739844,224.731976 56.5304421,224.262809 53.6247312,223.759753 C48.6318081,222.895105 43.5585765,222.30375 38.5275271,221.565023 C37.0860284,221.353291 35.5918019,221.173273 34.2610317,220.731777 C29.429537,219.128403 24.6864629,217.367084 19.852129,215.768062 C15.6724319,214.385435 12.1425042,212.386269 9.1731143,209.75937 C7.58073282,208.350316 6.02526085,206.900221 4.25725503,205.628589 C1.49958777,203.645901 0.518849508,201.18161 0.240608629,198.406718 C-0.175941493,194.263189 -0.11510165,190.183086 0.93134364,186.054793 C4.72572181,171.084675 13.4201409,158.062734 27.5422851,147.384139 C31.9904888,144.020689 37.5853207,141.440428 43.0203466,138.97396 C55.6571875,133.240115 67.2195968,126.510418 77.5863003,118.54018 C81.9550066,115.182016 85.1588327,111.202338 87.6443431,106.972376 C88.9138678,104.811535 89.220095,102.114993 89.0363587,99.702002 C88.744733,95.8585038 86.9824056,92.2665336 84.2819278,88.9335535 C81.6272827,85.6574702 77.8986115,84.6292832 73.2033981,85.3176431 C69.226906,85.9009146 65.2678546,86.5718634 61.3335448,87.3071711 C51.2438653,89.1931652 41.1675706,91.1226872 31.0957375,93.0637128 C27.4777949,93.7610892 24.1449883,93.3795998 21.032422,91.7905269 C17.4100178,89.9415312 13.7243401,88.069839 12.0500276,84.8351071 C10.3611136,81.573015 8.99789555,78.2080108 7.60871915,74.859485 C6.83240276,72.9887255 6.36920876,71.0424143 5.63385786,69.1601511 C1.35276095,58.2060879 3.2254113,47.6518579 9.20312862,37.3948601 C10.9277354,34.4359075 13.5101839,31.9050811 16.8072977,29.8281868 C25.4120794,24.408363 34.7116522,19.9243854 44.9773616,16.4990643 C57.9910039,12.1565518 71.0253317,7.89487645 84.6489948,4.80005511 C91.5113235,3.24114069 98.420296,1.79726383 105.345898,0.413393049 C107.146352,0.0536674828 109.092821,-0.0225060381 110.966283,0.00516515932 C125.152512,0.216585544 139.338335,0.467802706 153.522941,0.744825593 C161.626808,0.903079969 169.728242,1.13346601 177.830486,1.33182807 C177.83292,1.29265312 177.834948,1.25378908 177.836976,1.21461412" id="Fill-1" stroke="none" fill="#53B324" fill-rule="evenodd" mask="url(#mask-11)"></path>
                                </g>
                            </g>
                            <g id="Group-3" stroke="none" stroke-width="1" fill="none" fill-rule="evenodd" mask="url(#mask-5)">
                                <g transform="translate(288.000000, 219.000000)">
                                    <mask id="mask-13" fill="white">
                                        <use xlink:href="#path-12"></use>
                                    </mask>
                                    <g id="Clip-2" stroke="none" fill="none"></g>
                                    <path d="M226.739463,67.6906349 C228.329027,82.3930615 222.475658,95.8013731 213.801946,108.531696 C209.729555,114.50809 203.506305,119.407596 197.389858,124.283281 C187.917665,131.833588 177.363107,138.293142 165.775194,143.802019 C154.577043,149.125667 142.030675,151.467162 129.417267,153.675335 C117.636091,155.737742 105.943224,155.273425 94.2466578,153.101871 C84.059207,151.210472 74.2887972,148.437724 64.6746621,145.303762 C53.9541202,141.809295 45.2401833,136.164608 37.6035252,129.585597 C29.2002884,122.346374 21.2330491,114.808865 13.0397199,107.425299 C7.59830623,102.521528 4.3049772,96.8725733 2.93595469,90.5406533 C1.95160856,85.9892081 0.94599426,81.439185 0.0966547345,76.8720966 C-0.114639856,75.7347686 0.0393231607,74.4989598 0.375914981,73.37052 C1.23542624,70.4893364 2.42320699,67.665037 3.24573013,64.7785206 C5.65411859,56.3244653 11.0002878,48.8562839 16.2840397,41.3564607 C20.1677914,35.8443839 23.9179237,30.2768451 27.8474482,24.7843223 C31.5985052,19.5420898 37.4384657,15.826842 43.9312665,12.8055812 C61.0692459,4.83041954 79.9854288,1.49771781 99.7791547,0.650143577 C104.392497,0.452471062 109.022022,0.417985029 113.623343,0.121476256 C124.028099,-0.54904598 133.809143,1.66588166 143.458416,4.0713713 C153.549236,6.58636298 163.536026,9.39964106 173.371165,12.45681 C184.533715,15.9260338 195.209409,20.2638078 204.540585,26.149898 C212.711721,31.30396 218.885499,37.7144512 222.974073,45.3749723 C225.558155,50.2165268 226.571629,55.1242091 226.726517,60.2359635 C226.80188,62.7196689 226.739463,65.2058629 226.739463,67.6906349" id="Fill-1" stroke="none" fill="#53B324" fill-rule="evenodd" mask="url(#mask-13)"></path>
                                </g>
                            </g>
                        </g>
                    </g>
                </g>
            </g>
        </g>
    </g>
</svg>