<?xml version="1.0" encoding="utf-8"?>
<!-- Generator: Adobe Illustrator 17.1.0, SVG Export Plug-In . SVG Version: 6.00 Build 0)  -->
<!DOCTYPE svg PUBLIC "-//W3C//DTD SVG 1.1//EN" "http://www.w3.org/Graphics/SVG/1.1/DTD/svg11.dtd">
<svg version="1.1" xmlns="http://www.w3.org/2000/svg" xmlns:xlink="http://www.w3.org/1999/xlink" x="0px" y="0px"
	 viewBox="0 0 16.605 16.724" style="enable-background:new 0 0 16.605 16.724;" xml:space="preserve">
<g id="trace" style="display:none;">
</g>
<g id="Layer_1">
	<g>
		<g>
			<defs>
				<path id="SVGID_23_" d="M12.57,10.023C12.52,9.94,12.387,9.89,12.187,9.79c-0.2-0.099-1.182-0.583-1.365-0.649
					c-0.184-0.066-0.317-0.1-0.45,0.1c-0.133,0.2-0.516,0.649-0.633,0.783c-0.117,0.133-0.233,0.15-0.433,0.05
					c-0.2-0.1-0.844-0.311-1.607-0.991C7.105,8.553,6.704,7.899,6.588,7.699c-0.117-0.2-0.012-0.308,0.088-0.407
					c0.09-0.09,0.2-0.233,0.3-0.35c0.1-0.117,0.133-0.2,0.199-0.333c0.067-0.133,0.034-0.25-0.016-0.35
					c-0.05-0.099-0.45-1.082-0.616-1.482c-0.167-0.4-0.333-0.333-0.45-0.333c-0.117,0-0.25-0.017-0.383-0.017
					c-0.133,0-0.35,0.05-0.533,0.25c-0.183,0.2-0.699,0.683-0.699,1.665c0,0.983,0.715,1.932,0.816,2.065
					c0.1,0.133,1.382,2.215,3.413,3.015c2.032,0.8,2.032,0.533,2.398,0.499c0.366-0.033,1.182-0.483,1.349-0.949
					C12.62,10.506,12.62,10.106,12.57,10.023z M8.454,1.297C4.674,1.297,1.6,4.37,1.6,8.147c0,1.499,0.485,2.887,1.305,4.016
					l-0.856,2.543l2.634-0.843c1.082,0.715,2.378,1.133,3.77,1.133c3.779,0,6.854-3.073,6.854-6.85
					C15.307,4.37,12.233,1.297,8.454,1.297z M16.605,8.147c0,4.5-3.649,8.147-8.152,8.147c-1.429,0-2.772-0.367-3.941-1.014
					L0,16.724l1.471-4.371c-0.742-1.228-1.17-2.668-1.17-4.207C0.302,3.647,3.952,0,8.454,0S16.605,3.647,16.605,8.147z"/>
			</defs>
			<clipPath id="SVGID_2_">
				<use xlink:href="#SVGID_23_"  style="overflow:visible;"/>
			</clipPath>
			<rect x="-5" y="-5" style="clip-path:url(#SVGID_2_);fill:#5FCB4A;" width="26.605" height="26.724"/>
		</g>
	</g>
</g>
<g id="Layer_3" style="display:none;">
</g>
</svg>
