<?xml version="1.0" encoding="utf-8"?>
<!-- Generator: Adobe Illustrator 17.1.0, SVG Export Plug-In . SVG Version: 6.00 Build 0)  -->
<!DOCTYPE svg PUBLIC "-//W3C//DTD SVG 1.1//EN" "http://www.w3.org/Graphics/SVG/1.1/DTD/svg11.dtd">
<svg version="1.1" xmlns="http://www.w3.org/2000/svg" xmlns:xlink="http://www.w3.org/1999/xlink" x="0px" y="0px"
	 viewBox="0 0 15 13" style="enable-background:new 0 0 15 13;" xml:space="preserve">
<g id="trace" style="display:none;">
</g>
<g id="Layer_1">
	<g style="enable-background:new    ;">
		<g>
			<defs>
				<rect id="SVGID_31_" width="15" height="13"/>
			</defs>
			<clipPath id="SVGID_2_">
				<use xlink:href="#SVGID_31_"  style="overflow:visible;"/>
			</clipPath>
			<g style="clip-path:url(#SVGID_2_);">
				<defs>
					<path id="SVGID_33_" d="M14.688,7.009c-0.182,0.274-0.434,0.502-0.723,0.657c0.02,0.142,0.03,0.285,0.03,0.427
						c-0.001,0.77-0.272,1.527-0.742,2.133c-0.872,1.136-2.209,1.807-3.559,2.145H9.693C8.972,12.543,8.23,12.63,7.488,12.63
						c-1.108,0-2.212-0.196-3.243-0.602v-0.002H4.245c-1.071-0.433-2.089-1.118-2.715-2.126c-0.336-0.538-0.52-1.167-0.52-1.801
						c0-0.145,0.01-0.287,0.029-0.429C0.756,7.516,0.513,7.297,0.333,7.034C0.138,6.748,0.016,6.418,0,6.067V6.066V6.065V6.062
						c0-0.491,0.217-0.955,0.555-1.298C0.893,4.423,1.353,4.2,1.847,4.2h0.021C1.92,4.196,1.971,4.193,2.025,4.193
						c0.249,0,0.497,0.04,0.734,0.128L2.76,4.322h0.001c0.203,0.084,0.402,0.184,0.583,0.324c0.058-0.03,0.121-0.063,0.191-0.09
						C4.62,3.927,5.879,3.684,7.105,3.615c0.01-0.596,0.085-1.22,0.382-1.766c0.246-0.453,0.675-0.805,1.186-0.93h0.002l0.003-0.002
						c0.195-0.036,0.39-0.053,0.584-0.053c0.518,0,1.03,0.121,1.511,0.309c0.212-0.313,0.515-0.559,0.87-0.697l0.003-0.001
						l0.003-0.001c0.209-0.065,0.429-0.102,0.651-0.102c0.234,0,0.467,0.042,0.688,0.139V0.509c0,0.001,0.002,0.001,0.002,0.001
						c0.002,0,0.002,0.001,0.003,0.001c0.316,0.12,0.584,0.339,0.773,0.615c0.19,0.274,0.302,0.605,0.302,0.942
						c0,0.062-0.004,0.126-0.012,0.189v0.003c-0.037,0.438-0.265,0.823-0.584,1.098c-0.323,0.274-0.74,0.441-1.168,0.441
						c-0.067,0-0.137-0.004-0.207-0.013c-0.425-0.033-0.821-0.233-1.113-0.534c-0.291-0.298-0.48-0.698-0.48-1.13
						c0-0.022,0.002-0.042,0.003-0.064C10.109,1.883,9.684,1.74,9.265,1.74c-0.06,0-0.122,0.002-0.183,0.009H9.08
						C8.766,1.778,8.473,1.973,8.33,2.253v0.002c-0.214,0.411-0.258,0.892-0.264,1.37c1.208,0.077,2.423,0.363,3.489,0.962h0.001
						l0.016,0.009c0.021,0.012,0.058,0.033,0.091,0.05c0.075-0.059,0.152-0.118,0.239-0.171c0.323-0.211,0.707-0.315,1.09-0.315
						c0.17,0,0.34,0.021,0.504,0.062h0.002l0.007,0.002c0.002,0,0.003,0.002,0.005,0.002c0.389,0.098,0.742,0.317,1.009,0.612
						c0.265,0.298,0.443,0.673,0.479,1.079v0.002V5.92C14.999,5.953,15,5.984,15,6.017C14.999,6.374,14.883,6.717,14.688,7.009"/>
				</defs>
				<clipPath id="SVGID_4_">
					<use xlink:href="#SVGID_33_"  style="overflow:visible;"/>
				</clipPath>
				<g style="clip-path:url(#SVGID_4_);">
					<defs>
						<rect id="SVGID_35_" width="15" height="13"/>
					</defs>
					<clipPath id="SVGID_6_">
						<use xlink:href="#SVGID_35_"  style="overflow:visible;"/>
					</clipPath>
					<rect x="-5" y="-4.628" style="clip-path:url(#SVGID_6_);fill:#6E6E6E;" width="25" height="22.259"/>
				</g>
			</g>
			<g style="clip-path:url(#SVGID_2_);">
				<defs>
					<path id="SVGID_37_" d="M1.317,6.766c0.277-0.595,0.709-1.1,1.203-1.52C2.359,5.173,2.191,5.12,2.027,5.121
						c-0.027,0-0.055,0.002-0.084,0.005H1.941H1.936C1.698,5.133,1.459,5.234,1.281,5.397c-0.18,0.162-0.3,0.38-0.309,0.622V6.02
						v0.002C0.971,6.041,0.97,6.061,0.97,6.08c0,0.148,0.047,0.291,0.126,0.423C1.154,6.601,1.23,6.689,1.317,6.766"/>
				</defs>
				<clipPath id="SVGID_8_">
					<use xlink:href="#SVGID_37_"  style="overflow:visible;"/>
				</clipPath>
				<g style="clip-path:url(#SVGID_8_);">
					<defs>
						<rect id="SVGID_39_" width="15" height="13"/>
					</defs>
					<clipPath id="SVGID_10_">
						<use xlink:href="#SVGID_39_"  style="overflow:visible;"/>
					</clipPath>
					<rect x="-4.03" y="0.121" style="clip-path:url(#SVGID_10_);fill:#FFFFFF;" width="11.551" height="11.645"/>
				</g>
			</g>
			<g style="clip-path:url(#SVGID_2_);">
				<defs>
					<path id="SVGID_41_" d="M12.533,6.664c-0.629-0.859-1.607-1.42-2.622-1.732L9.903,4.931c-0.195-0.06-0.391-0.112-0.591-0.155
						C8.72,4.643,8.111,4.577,7.502,4.577c-0.816,0-1.634,0.118-2.416,0.355C4.072,5.248,3.091,5.805,2.463,6.666
						c-0.318,0.43-0.505,0.965-0.505,1.497c0,0.196,0.026,0.391,0.078,0.582v0.002c0.114,0.427,0.337,0.809,0.627,1.142
						c0.29,0.333,0.645,0.616,1.016,0.848c0.084,0.05,0.167,0.098,0.252,0.145c1.084,0.592,2.333,0.853,3.571,0.853
						c0.211,0,0.422-0.005,0.629-0.022c1.249-0.102,2.503-0.462,3.516-1.201h0.001c0.323-0.234,0.62-0.518,0.857-0.839
						c0.238-0.323,0.411-0.683,0.489-1.074V8.599c0.032-0.147,0.048-0.295,0.048-0.445C13.044,7.627,12.85,7.094,12.533,6.664
						 M4.405,7.92C4.29,7.762,4.222,7.57,4.222,7.371c0-0.09,0.015-0.182,0.045-0.27L4.268,7.1c0.103-0.324,0.387-0.559,0.709-0.625
						h0.002c0.002,0,0.002-0.002,0.002-0.002c0.064-0.013,0.13-0.021,0.197-0.021c0.245,0,0.479,0.098,0.657,0.258
						c0.177,0.161,0.297,0.387,0.297,0.641V7.39v0.021c0,0.257-0.122,0.484-0.301,0.642C5.652,8.212,5.416,8.308,5.173,8.308
						c-0.098,0-0.196-0.016-0.291-0.05C4.88,8.257,4.879,8.257,4.877,8.257C4.877,8.255,4.875,8.255,4.875,8.255
						C4.68,8.199,4.518,8.077,4.405,7.92 M10.334,9.931L10.334,9.931c-0.022,0.08-0.062,0.147-0.11,0.202
						c-0.048,0.054-0.105,0.096-0.165,0.133c-0.116,0.072-0.241,0.12-0.337,0.175L9.72,10.443l-0.003,0.002
						c-0.715,0.329-1.515,0.51-2.313,0.51c-0.883,0.001-1.762-0.223-2.51-0.718c-0.075-0.039-0.134-0.1-0.172-0.168
						c-0.04-0.072-0.06-0.152-0.06-0.232c0-0.089,0.024-0.177,0.073-0.254c0.047-0.074,0.116-0.136,0.209-0.17
						C4.945,9.412,4.948,9.41,4.951,9.41C5.01,9.384,5.068,9.372,5.124,9.372c0.068,0,0.132,0.017,0.188,0.04
						c0.059,0.023,0.111,0.055,0.16,0.087C5.57,9.562,5.66,9.629,5.738,9.661l0.002,0.001l0.002,0.002
						c0.523,0.252,1.1,0.372,1.68,0.372c0.773,0,1.552-0.213,2.216-0.6H9.64C9.71,9.39,9.788,9.368,9.864,9.368
						c0.093,0,0.184,0.03,0.259,0.078c0.076,0.049,0.141,0.117,0.182,0.201c0.027,0.055,0.043,0.117,0.043,0.183
						C10.348,9.862,10.343,9.897,10.334,9.931 M10.589,7.927c-0.116,0.157-0.282,0.279-0.477,0.333
						c-0.001,0.002-0.002,0.002-0.003,0.002h-0.003c-0.091,0.03-0.184,0.046-0.278,0.046c-0.217,0-0.432-0.077-0.602-0.209
						c-0.17-0.13-0.299-0.318-0.339-0.541c0,0,0-0.001-0.002-0.001V7.552C8.873,7.495,8.867,7.437,8.867,7.38
						c0-0.192,0.066-0.379,0.177-0.532c0.11-0.152,0.266-0.273,0.448-0.336c0,0,0.001-0.002,0.002-0.002
						c0.103-0.038,0.212-0.055,0.318-0.055c0.197,0,0.389,0.059,0.552,0.164c0.161,0.104,0.29,0.259,0.358,0.45v0.002
						c0.001,0.002,0.001,0.002,0.002,0.004h-0.002c0.038,0.097,0.057,0.196,0.057,0.297C10.78,7.574,10.71,7.769,10.589,7.927"/>
				</defs>
				<clipPath id="SVGID_12_">
					<use xlink:href="#SVGID_41_"  style="overflow:visible;"/>
				</clipPath>
				<g style="clip-path:url(#SVGID_12_);">
					<defs>
						<rect id="SVGID_43_" width="15" height="13"/>
					</defs>
					<clipPath id="SVGID_14_">
						<use xlink:href="#SVGID_43_"  style="overflow:visible;"/>
					</clipPath>
					<rect x="-3.041" y="-0.423" style="clip-path:url(#SVGID_14_);fill:#FFFFFF;" width="21.084" height="17.159"/>
				</g>
			</g>
			<g style="clip-path:url(#SVGID_2_);">
				<defs>
					<path id="SVGID_45_" d="M13.931,5.669V5.667c-0.087-0.178-0.227-0.312-0.393-0.403c-0.166-0.092-0.361-0.138-0.557-0.138
						c-0.176,0-0.35,0.038-0.507,0.116c0.496,0.423,0.929,0.928,1.212,1.525c0.091-0.077,0.167-0.17,0.224-0.276
						c0.076-0.137,0.12-0.291,0.12-0.445C14.029,5.918,14,5.788,13.931,5.669L13.931,5.669z"/>
				</defs>
				<clipPath id="SVGID_16_">
					<use xlink:href="#SVGID_45_"  style="overflow:visible;"/>
				</clipPath>
				<g style="clip-path:url(#SVGID_16_);">
					<defs>
						<rect id="SVGID_47_" width="15" height="13"/>
					</defs>
					<clipPath id="SVGID_18_">
						<use xlink:href="#SVGID_47_"  style="overflow:visible;"/>
					</clipPath>
					<rect x="7.474" y="0.126" style="clip-path:url(#SVGID_18_);fill:#FFFFFF;" width="11.556" height="11.641"/>
				</g>
			</g>
			<g style="clip-path:url(#SVGID_2_);">
				<defs>
					<path id="SVGID_49_" d="M11.627,1.582c-0.118,0.138-0.189,0.312-0.189,0.489c0,0.016,0,0.034,0.002,0.049v0.002v0.002
						c0.009,0.205,0.108,0.398,0.258,0.538c0.151,0.141,0.352,0.229,0.557,0.23h0.002h0.002c0.014,0.002,0.028,0.002,0.045,0.002
						c0.205,0,0.409-0.087,0.562-0.227c0.154-0.142,0.255-0.335,0.263-0.542V2.123V2.122c0.002-0.016,0.002-0.03,0.002-0.048
						c0-0.213-0.102-0.416-0.262-0.568c-0.159-0.151-0.373-0.245-0.584-0.242c-0.068,0-0.135,0.009-0.202,0.028v0.001H12.08
						C11.906,1.338,11.744,1.442,11.627,1.582"/>
				</defs>
				<clipPath id="SVGID_20_">
					<use xlink:href="#SVGID_49_"  style="overflow:visible;"/>
				</clipPath>
				<g style="clip-path:url(#SVGID_20_);">
					<defs>
						<rect id="SVGID_51_" width="15" height="13"/>
					</defs>
					<clipPath id="SVGID_22_">
						<use xlink:href="#SVGID_51_"  style="overflow:visible;"/>
					</clipPath>
					<rect x="6.437" y="-3.736" style="clip-path:url(#SVGID_22_);fill:#FFFFFF;" width="11.694" height="11.629"/>
				</g>
			</g>
			<g style="clip-path:url(#SVGID_2_);">
				<defs>
					<path id="SVGID_53_" d="M6.375,7.497c0-0.623-0.504-1.127-1.127-1.127c-0.62,0-1.123,0.504-1.123,1.127
						c0,0.62,0.504,1.123,1.123,1.123C5.871,8.62,6.375,8.116,6.375,7.497"/>
				</defs>
				<clipPath id="SVGID_24_">
					<use xlink:href="#SVGID_53_"  style="overflow:visible;"/>
				</clipPath>
				<g style="clip-path:url(#SVGID_24_);">
					<defs>
						<rect id="SVGID_55_" width="15" height="13"/>
					</defs>
					<clipPath id="SVGID_26_">
						<use xlink:href="#SVGID_55_"  style="overflow:visible;"/>
					</clipPath>
					<rect x="-0.875" y="1.37" style="clip-path:url(#SVGID_26_);fill:#FF7500;" width="12.25" height="12.25"/>
				</g>
			</g>
			<g style="clip-path:url(#SVGID_2_);">
				<defs>
					<path id="SVGID_57_" d="M10.875,7.497c0-0.623-0.504-1.127-1.127-1.127c-0.62,0-1.123,0.504-1.123,1.127
						c0,0.62,0.504,1.123,1.123,1.123C10.371,8.62,10.875,8.116,10.875,7.497"/>
				</defs>
				<clipPath id="SVGID_28_">
					<use xlink:href="#SVGID_57_"  style="overflow:visible;"/>
				</clipPath>
				<g style="clip-path:url(#SVGID_28_);">
					<defs>
						<rect id="SVGID_59_" width="15" height="13"/>
					</defs>
					<clipPath id="SVGID_30_">
						<use xlink:href="#SVGID_59_"  style="overflow:visible;"/>
					</clipPath>
					<rect x="3.625" y="1.37" style="clip-path:url(#SVGID_30_);fill:#FF7500;" width="12.25" height="12.25"/>
				</g>
			</g>
		</g>
	</g>
</g>
<g id="Layer_3" style="display:none;">
</g>
</svg>
