<?xml version="1.0" encoding="utf-8"?>
<!-- Generator: Adobe Illustrator 17.1.0, SVG Export Plug-In . SVG Version: 6.00 Build 0)  -->
<!DOCTYPE svg PUBLIC "-//W3C//DTD SVG 1.1//EN" "http://www.w3.org/Graphics/SVG/1.1/DTD/svg11.dtd">
<svg version="1.1" xmlns="http://www.w3.org/2000/svg" xmlns:xlink="http://www.w3.org/1999/xlink" x="0px" y="0px"
	 viewBox="0 0 30 30" style="enable-background:new 0 0 30 30;" xml:space="preserve">
<g id="trace" style="display:none;">
</g>
<g id="Layer_1">
	<g>
		<g>
			<g>
				<path style="fill:#3B3B3B;" d="M0,15C0,6.716,6.716,0,15,0s15,6.716,15,15s-6.716,15-15,15S0,23.284,0,15z"/>
				<path style="fill:#FFFFFF;" d="M15.046,17.778c-0.908,0.001-1.818-0.343-2.504-1.007l-0.109-0.105l1.556-1.504l0.108,0.105
					c0.268,0.258,0.607,0.383,0.949,0.384c0.359-0.002,0.701-0.126,0.968-0.384l2.55-2.465c0.267-0.258,0.396-0.588,0.397-0.928
					c-0.001-0.338-0.13-0.666-0.397-0.925l-0.108-0.105c-0.267-0.258-0.608-0.382-0.958-0.384c-0.351,0.002-0.691,0.126-0.959,0.384
					l-1.048,1.013c-0.429,0.415-1.126,0.415-1.556,0c-0.429-0.415-0.429-1.088,0-1.503l1.049-1.014
					c0.691-0.669,1.607-1.007,2.514-1.007c0.906-0.001,1.822,0.338,2.514,1.007l0.108,0.105c0.691,0.667,1.042,1.552,1.041,2.429
					c0.001,0.876-0.348,1.762-1.041,2.432l-2.55,2.465c-0.695,0.673-1.615,1.007-2.517,1.007H15.046"/>
				<path style="fill:#FFFFFF;" d="M11.723,21.667c-0.907,0.001-1.818-0.343-2.504-1.007l-0.108-0.105
					c-0.694-0.67-1.043-1.558-1.041-2.434c-0.002-0.876,0.35-1.76,1.041-2.427l2.55-2.465c0.691-0.669,1.607-1.007,2.514-1.007
					c0.711-0.001,1.427,0.207,2.037,0.619c0.101,0.05,0.196,0.115,0.28,0.197l0.197,0.19l0.108,0.105l-1.555,1.504l-0.109-0.105
					c-0.267-0.258-0.608-0.382-0.958-0.384c-0.35,0.002-0.691,0.126-0.958,0.384l-2.551,2.465c-0.266,0.258-0.395,0.587-0.397,0.923
					c0.002,0.342,0.131,0.671,0.397,0.93l0.109,0.105c0.267,0.258,0.606,0.383,0.948,0.384c0.359-0.002,0.701-0.126,0.968-0.384
					l1.099-1.062c0.43-0.415,1.126-0.415,1.556,0s0.43,1.089,0,1.504l-1.099,1.062c-0.695,0.673-1.616,1.007-2.518,1.007H11.723"/>
			</g>
		</g>
	</g>
</g>
<g id="Layer_3" style="display:none;">
</g>
</svg>
