<?xml version="1.0" encoding="utf-8"?>
<!-- Generator: Adobe Illustrator 17.1.0, SVG Export Plug-In . SVG Version: 6.00 Build 0)  -->
<!DOCTYPE svg PUBLIC "-//W3C//DTD SVG 1.1//EN" "http://www.w3.org/Graphics/SVG/1.1/DTD/svg11.dtd">
<svg version="1.1" xmlns="http://www.w3.org/2000/svg" xmlns:xlink="http://www.w3.org/1999/xlink" x="0px" y="0px"
	 viewBox="0 0 30 30" style="enable-background:new 0 0 30 30;" xml:space="preserve">
<g id="trace" style="display:none;">
</g>
<g id="Layer_1">
	<g>
		<g>
			<path style="fill:#0077B5;" d="M30,15c0,8.285-6.716,15-15,15C6.716,30,0,23.285,0,15S6.716,0,15,0C23.284,0,30,6.715,30,15"/>
			<g transform="translate(13.584906, 12.452830)">
				<path style="fill:#FFFFFF;" d="M-4.835-1.653h3.161v10.16h-3.161V-1.653z"/>
				<path style="fill:#FFFFFF;" d="M-3.251-3.04c-1.015,0-1.833-0.821-1.833-1.832c0-1.01,0.819-1.831,1.833-1.831
					c1.009,0,1.83,0.821,1.83,1.831C-1.422-3.861-2.242-3.04-3.251-3.04"/>
				<path style="fill:#FFFFFF;" d="M9.915,8.508H6.758V3.566c0-1.178-0.02-2.693-1.641-2.693c-1.643,0-1.894,1.284-1.894,2.609
					v5.026H0.069v-10.16h3.026v1.389h0.043C3.561-1.062,4.59-1.904,6.126-1.904c3.198,0,3.789,2.104,3.789,4.84V8.508"/>
			</g>
		</g>
	</g>
</g>
<g id="Layer_3" style="display:none;">
</g>
</svg>
