<?xml version="1.0" encoding="utf-8"?>
<!-- Generator: Adobe Illustrator 17.1.0, SVG Export Plug-In . SVG Version: 6.00 Build 0)  -->
<!DOCTYPE svg PUBLIC "-//W3C//DTD SVG 1.1//EN" "http://www.w3.org/Graphics/SVG/1.1/DTD/svg11.dtd">
<svg version="1.1" xmlns="http://www.w3.org/2000/svg" xmlns:xlink="http://www.w3.org/1999/xlink" x="0px" y="0px"
	 viewBox="0 0 30 30" style="enable-background:new 0 0 30 30;" xml:space="preserve">
<g id="trace" style="display:none;">
</g>
<g id="Layer_1">
	<path style="fill:#4099FF;" d="M0,15C0,6.728,6.716,0.022,15,0.022S30,6.728,30,15s-6.716,14.978-15,14.978S0,23.273,0,15z"/>
	<path style="fill:#FFFFFF;" d="M14.791,12.196l0.031,0.518l-0.524-0.063c-1.907-0.243-3.573-1.068-4.987-2.454L8.62,9.51
		l-0.178,0.508c-0.377,1.132-0.136,2.327,0.65,3.131c0.419,0.444,0.325,0.508-0.398,0.243c-0.251-0.085-0.471-0.148-0.492-0.116
		c-0.073,0.074,0.178,1.037,0.377,1.417c0.272,0.529,0.828,1.047,1.435,1.354l0.513,0.243L9.919,16.3
		c-0.587,0-0.608,0.011-0.545,0.233c0.21,0.688,1.037,1.417,1.959,1.735l0.65,0.222l-0.566,0.338
		c-0.838,0.487-1.823,0.762-2.808,0.783c-0.471,0.011-0.859,0.053-0.859,0.085c0,0.106,1.278,0.698,2.022,0.931
		c2.232,0.688,4.882,0.391,6.873-0.783c1.414-0.836,2.829-2.496,3.489-4.104c0.356-0.857,0.712-2.422,0.712-3.173
		c0-0.487,0.031-0.55,0.618-1.132c0.346-0.338,0.671-0.709,0.733-0.814c0.105-0.201,0.094-0.201-0.44-0.021
		c-0.891,0.317-1.016,0.275-0.576-0.201c0.325-0.338,0.712-0.952,0.712-1.132c0-0.032-0.157,0.021-0.335,0.116
		c-0.189,0.106-0.608,0.264-0.922,0.36l-0.566,0.18l-0.513-0.349c-0.283-0.19-0.681-0.402-0.891-0.465
		c-0.534-0.148-1.352-0.127-1.833,0.042C15.524,9.626,14.696,10.853,14.791,12.196z"/>
</g>
<g id="Layer_3" style="display:none;">
</g>
</svg>
